<svg xmlns="http://www.w3.org/2000/svg" viewBox="0 0 1197 304">
  <path d="M424.45 172.36c14.13-39.44 19.83-55.39 25.06-71.58 7.52 23.48 15.27 45.37 24.39 71.58zm9.8-100.52l-61.08 160.91h31.22l13-37.61H481l12.77 37.61h31.44L466.38 71.84zM589.11 212.7c-16.87 0-26.68-13.9-26.68-38.07 0-21.64 11.41-35.32 27.58-35.32 15.27 0 24.62 13.9 24.62 36.69 0 24.17-9.8 36.7-25.52 36.7m-25.94-78.18V71.85h-26.72v160.91H562v-14.82c7.76 11.17 18.23 17.1 33.73 17.1 28 0 46.73-21.89 46.73-59 0-36.92-17.09-59-43.77-59a43.68 43.68 0 0 0-35.5 17.55M698.49 136.39c11 0 19.62 5.93 25.32 16l19.86-13.47c-10-16-26.69-22.82-44.72-22.82-28.08 0-44 16.43-44 34.23 0 17.34 11.18 27.61 28.75 33.09l12.09 3.88c17.12 5.48 21 8.67 21 16.2 0 6.85-6.39 11.87-18 11.87-12.56 0-23.05-6.85-29-18.49L649 210.55c9.58 14.38 25.33 25.56 48.61 25.56 28.3 0 45.86-15.29 45.86-36.28 0-18.26-11.41-27.61-31.48-34l-12.1-3.64c-14.61-4.57-18.26-7.76-18.26-14.61 0-6.62 5.48-11.18 16.89-11.18M797.7 140.72h22v-21.38h-22v-37.1h-26.55l-.46 37.1h-17.81v21.38h17.81v62.18c0 10.52 1.6 18.51 6.4 24 4.57 5.49 12.11 8.23 23.3 8.23a80.31 80.31 0 0 0 19.88-2.52v-21.26a32.86 32.86 0 0 1-11 2.07c-8.22 0-11.6-4.12-11.6-15.77zM860.35 119.34h-25.54v114h26.72V180.2c0-12.16 2-20.18 5.94-26.12 5-7.12 12-11.41 24.34-11.28a36 36 0 0 1 9.8 1.48v-24.94a31.59 31.59 0 0 0-9.8-1.48c-15.73 0-24.63 6.64-31.46 19zM978.58 185c-.23 6.4-1.37 12.79-5 18-5 7.54-13.47 11.88-23.75 11.88-11.87 0-17.35-6.17-17.35-14.39 0-6.39 2.74-10.74 9.82-13.93 8-3.88 23.29-6.16 36.31-6.85zm25.45-24c0-17.82-2.39-27.18-9.47-33.81-7.54-7.3-18.49-11-34-11-29 0-47.31 13.71-49.13 38.37L937 157c1.37-12.57 7.54-19.64 21.47-19.64 7.07 0 12.55 1.59 15.75 4.79 3 3 4.34 7.3 4.34 13.7V162c-18 1.14-40 4.34-51.15 9.36-13.47 6.16-20.77 15.75-20.77 30.37 0 20.32 14.61 33.35 35.38 33.35 16.21 0 28.53-5.71 37.21-16.21 2.47 11.36 10.47 15.56 24.76 15.56a36.56 36.56 0 0 0 12.19-1.83v-17.36c-10.3 1.85-12.1-4.18-12.17-13.08zM1049.22 175.36c0-25.31 11.87-36.94 27.38-36.94 10.73 0 18.94 5 22.13 20.07l24-8.21c-5.25-20.29-20.76-34.2-45.41-34.2-34 0-55.44 22.57-55.44 59.74 0 37.39 21 60.2 54.07 60.2 25.79 0 40.85-13.69 47.46-32.61l-23.95-8.21c-2.74 12.08-10 18.47-22.14 18.47-17.56 0-28.06-13.22-28.06-38.31M1174.14 140.72h22v-21.38h-22v-37.1h-26.55l-.47 37.1h-17.81v21.38h17.81v62.18c0 10.52 1.61 18.51 6.41 24 4.56 5.49 12.11 8.23 23.3 8.23a80.17 80.17 0 0 0 19.87-2.52v-21.26a32.76 32.76 0 0 1-11 2.07c-8.23 0-11.6-4.12-11.6-15.77zM152.3 304c121.6 0 152-30.4 152-152S273.9 0 152.3 0 .3 30.4.3 152s30.4 152 152 152" fill="#191a1b"/>
  <path fill="#fff" d="M233.05 232.75h-28.5v-133h-133v-28.5h161.5v161.5z"/>
  <path d="M127.36 235.12a58.19 58.19 0 1 1 58.19-58.18 58.25 58.25 0 0 1-58.19 58.18m0-87.87a29.69 29.69 0 1 0 29.69 29.69 29.73 29.73 0 0 0-29.69-29.69" fill="#fff"/>
</svg>
