<svg width="386" height="302" viewBox="0 0 386 302" fill="none" xmlns="http://www.w3.org/2000/svg">
<path d="M56.8508 156.358C45.1851 156.358 37.4676 156.555 32.7635 162.371L27.582 159.972V173.588C27.582 183.107 40.6898 190.818 56.8508 190.818C73.0118 190.818 86.1195 183.107 86.1195 173.588C86.1195 164.07 73.0217 156.358 56.8508 156.358Z" fill="#2E2F30" stroke="black" stroke-width="0.75" stroke-miterlimit="10" stroke-linecap="round" stroke-linejoin="round"/>
<path d="M56.8508 176.215C73.0155 176.215 86.1195 168.501 86.1195 158.985C86.1195 149.469 73.0155 141.755 56.8508 141.755C40.6861 141.755 27.582 149.469 27.582 158.985C27.582 168.501 40.6861 176.215 56.8508 176.215Z" fill="#696B6C" stroke="black" stroke-width="0.75" stroke-miterlimit="10" stroke-linecap="round" stroke-linejoin="round"/>
<path d="M56.8534 173.569C70.5299 173.569 81.6169 167.039 81.6169 158.985C81.6169 150.93 70.5299 144.401 56.8534 144.401C43.1769 144.401 32.0898 150.93 32.0898 158.985C32.0898 167.039 43.1769 173.569 56.8534 173.569Z" fill="white" stroke="black" stroke-width="0.75" stroke-miterlimit="10" stroke-linecap="round" stroke-linejoin="round"/>
<path d="M56.8522 171.999C69.0567 171.999 78.9504 166.172 78.9504 158.985C78.9504 151.797 69.0567 145.971 56.8522 145.971C44.6476 145.971 34.7539 151.797 34.7539 158.985C34.7539 166.172 44.6476 171.999 56.8522 171.999Z" fill="black" stroke="black" stroke-width="0.75" stroke-miterlimit="10" stroke-linecap="round" stroke-linejoin="round"/>
<path d="M349.629 174.033L369.132 161.73C373.249 159.597 373.249 157.01 369.132 154.71L273.707 102.525L224.399 127.754C210.167 120.18 187.741 119.795 173.848 127.003C166.826 130.647 163.316 135.534 163.316 140.511C163.316 145.369 166.677 150.306 173.38 154.226L77.7868 203.073C63.5552 195.499 41.1288 195.114 27.2353 202.322C20.214 205.966 16.7034 210.854 16.7034 215.83C16.7034 220.688 20.0648 225.625 26.7679 229.545L4.62986 243.369C0.512545 245.502 -0.481976 249.076 3.63534 251.377L95.5788 299.523C98.9602 301.409 103.127 301.497 106.509 299.74L139.298 282.826C153.51 290.596 176.224 291.051 190.237 283.774C197.259 280.13 200.769 275.242 200.769 270.266C200.769 265.319 197.288 260.293 190.347 256.334L298.57 200.515C312.772 208.296 335.497 208.741 349.51 201.463C356.531 197.82 360.042 192.932 360.042 187.956C360.062 183.009 356.581 177.983 349.629 174.033Z" fill="black" stroke="black" stroke-width="0.75" stroke-miterlimit="10" stroke-linecap="round" stroke-linejoin="round"/>
<path d="M222.95 259.977C258.949 259.977 288.131 245.362 288.131 227.333C288.131 209.305 258.949 194.69 222.95 194.69C186.952 194.69 157.77 209.305 157.77 227.333C157.77 245.362 186.952 259.977 222.95 259.977Z" fill="#696B6C" stroke="black" stroke-width="0.75" stroke-miterlimit="10" stroke-linecap="round" stroke-linejoin="round"/>
<path d="M222.95 252.956C258.949 252.956 288.131 238.341 288.131 220.312C288.131 202.284 258.949 187.669 222.95 187.669C186.952 187.669 157.77 202.284 157.77 220.312C157.77 238.341 186.952 252.956 222.95 252.956Z" fill="white" stroke="black" stroke-width="0.75" stroke-miterlimit="10" stroke-linecap="round" stroke-linejoin="round"/>
<path d="M191.524 247.644L277.589 202.52C265.963 193.584 245.844 187.669 222.95 187.669C186.949 187.669 157.77 202.283 157.77 220.313C157.77 233.277 172.876 244.484 194.756 249.747C193.771 249.017 192.697 248.316 191.524 247.644Z" fill="black" stroke="black" stroke-width="0.75" stroke-miterlimit="10" stroke-linecap="round" stroke-linejoin="round"/>
<path d="M363.265 124.821L382.359 102.851V90.7551L365.532 93.9346L348.715 117.998" fill="#77685C"/>
<path d="M363.265 124.821L382.359 102.851V90.7551L365.532 93.9346L348.715 117.998" stroke="black" stroke-width="0.75" stroke-miterlimit="10" stroke-linecap="round" stroke-linejoin="round"/>
<path d="M157.974 244.998L141.883 234.848L157.974 214.408L174.155 214.428" fill="black"/>
<path d="M157.974 244.998L141.883 234.848L157.974 214.408L174.155 214.428" stroke="black" stroke-width="0.75" stroke-miterlimit="10" stroke-linecap="round" stroke-linejoin="round"/>
<path d="M323.474 161.72L307.383 151.57L323.474 131.13L339.665 131.15" fill="black"/>
<path d="M323.474 161.72L307.383 151.57L323.474 131.13L339.665 131.15" stroke="black" stroke-width="0.75" stroke-miterlimit="10" stroke-linecap="round" stroke-linejoin="round"/>
<path d="M137.965 106.722L168.944 81.2859V78.2349L118.074 113.999L133.211 116.842L139.486 109.091L137.965 106.722Z" fill="#77685C" stroke="black" stroke-width="0.75" stroke-miterlimit="10" stroke-linecap="round" stroke-linejoin="round"/>
<path d="M22.0173 175.83L19.1133 167.803L118.993 112.439L223.099 149.773L120.932 224.272L22.0173 175.83Z" fill="#E3DBD5"/>
<path d="M68.0352 198.363L93.0473 210.616V126.825L68.0352 140.678V198.363Z" fill="white"/>
<path d="M112.59 115.993V220.184L120.934 224.272L123.122 222.683V113.92L118.995 112.439L112.59 115.993Z" fill="white"/>
<path d="M22.0173 175.83L19.1133 167.803L118.993 112.439L223.099 149.773L120.932 224.272L22.0173 175.83Z" stroke="black" stroke-width="0.75" stroke-miterlimit="10" stroke-linecap="round" stroke-linejoin="round"/>
<path d="M27.1888 163.32L19.1133 167.802L22.0173 175.83L120.932 224.272L125.348 221.053L129.654 214.684L27.1888 163.32Z" fill="#C9B7A0" stroke="black" stroke-width="0.75" stroke-miterlimit="10" stroke-linecap="round" stroke-linejoin="round"/>
<path d="M373.333 70.9975L277.232 23.2466L217.989 58.5068L214.508 90.3013L231.037 101.163L252.767 137.568L315.223 113.999L379.35 81.2863L373.333 70.9975Z" fill="black" stroke="black" stroke-width="0.75" stroke-miterlimit="10" stroke-linecap="round" stroke-linejoin="round"/>
<path d="M219.341 63.6907L277.232 23.2466L217.988 58.5068L219.341 63.6907Z" fill="#E3DBD5" stroke="black" stroke-width="0.75" stroke-miterlimit="10" stroke-linecap="round" stroke-linejoin="round"/>
<path d="M207.516 94.7444L209.803 113.712L208.888 148.321L215.561 153.851L250.956 172.582C250.956 172.582 279.728 157.346 292.189 147.255C304.79 137.055 304.75 114.878 304.75 114.878L294.168 102.871L283.129 85.4233L253.87 78.2449" fill="black"/>
<path d="M207.516 94.7444L209.803 113.712L208.888 148.321L215.561 153.851L250.956 172.582C250.956 172.582 279.728 157.346 292.189 147.255C304.79 137.055 304.75 114.878 304.75 114.878L294.168 102.871L283.129 85.4233L253.87 78.2449" stroke="black" stroke-width="0.75" stroke-miterlimit="10" stroke-linecap="round" stroke-linejoin="round"/>
<path d="M168.758 75.8254L118.992 112.448C118.992 112.448 139.817 129.649 159.042 139.276C178.266 148.903 213.78 155.381 213.78 155.381L236.813 109.802L168.758 75.8254Z" stroke="black" stroke-width="0.75" stroke-miterlimit="10" stroke-linecap="round" stroke-linejoin="round"/>
<path d="M168.758 75.8254L118.992 112.448C118.992 112.448 119.519 112.883 120.464 113.643L166.262 79.9528L230.896 112.211L236.813 109.802L168.758 75.8254Z" fill="black"/>
<path d="M185.311 84.0903L185.63 84.2483L185.948 105.596L167.987 120.654L137.624 108.331L120.469 113.643C127.341 119.005 144.785 132.137 159.046 139.276C178.27 148.904 213.785 155.381 213.785 155.381L236.818 109.802L185.311 84.0903Z" fill="black" stroke="black" stroke-width="0.75" stroke-miterlimit="10" stroke-linecap="round" stroke-linejoin="round"/>
<path d="M223.342 63.5129C229.618 60.1656 236.072 57.1342 242.676 54.4979C243.481 54.1819 244.277 53.8659 245.082 53.55C245.868 53.2537 246.733 52.839 247.579 52.76C248.862 52.6416 250.234 53.4512 251.298 54.0832C253.705 55.4951 255.614 57.5292 256.957 59.9582C258.31 62.407 262.079 60.2149 260.726 57.7761C259.493 55.5346 257.812 53.5302 255.793 51.9405C253.596 50.2125 250.701 48.3957 247.797 48.4352C246.266 48.455 244.844 49.0178 243.441 49.5608C241.989 50.1237 240.547 50.6964 239.115 51.2888C236.231 52.4836 233.367 53.7277 230.543 55.0508C227.36 56.5319 224.227 58.1118 221.134 59.7607C218.668 61.0839 220.866 64.8261 223.342 63.5129Z" fill="#4C5FD5" stroke="black" stroke-width="0.75" stroke-miterlimit="10" stroke-linecap="round" stroke-linejoin="round"/>
<path d="M228.038 66.0107C234.313 62.6634 240.767 59.632 247.371 56.9957C248.177 56.6797 248.972 56.3637 249.778 56.0478C250.563 55.7515 251.429 55.3368 252.274 55.2578C253.557 55.1394 254.929 55.949 255.994 56.581C258.4 57.993 260.31 60.027 261.652 62.456C263.005 64.9048 266.774 62.7128 265.422 60.2739C264.188 58.0325 262.508 56.028 260.489 54.4383C258.291 52.7103 255.397 50.8935 252.493 50.933C250.961 50.9528 249.539 51.5156 248.137 52.0586C246.685 52.6215 245.243 53.1942 243.811 53.7866C240.927 54.9814 238.062 56.2255 235.238 57.5486C232.055 59.0297 228.923 60.6096 225.83 62.2585C223.363 63.5915 225.561 67.3338 228.038 66.0107Z" fill="#4C5FD5" stroke="black" stroke-width="0.75" stroke-miterlimit="10" stroke-linecap="round" stroke-linejoin="round"/>
<path d="M232.737 68.519C239.013 65.1717 245.467 62.1403 252.071 59.504C252.876 59.188 253.672 58.872 254.477 58.5561C255.263 58.2598 256.128 57.8451 256.974 57.7661C258.257 57.6477 259.629 58.4573 260.693 59.0893C263.1 60.5013 265.009 62.5353 266.352 64.9643C267.705 67.4131 271.474 65.2211 270.121 62.7822C268.888 60.5408 267.207 58.5363 265.188 56.9466C262.991 55.2186 260.097 53.4018 257.193 53.4413C255.661 53.4611 254.239 54.0239 252.837 54.5669C251.385 55.1298 249.942 55.7025 248.51 56.2949C245.626 57.4897 242.762 58.7338 239.938 60.0569C236.755 61.538 233.622 63.1179 230.529 64.7668C228.053 66.0998 230.261 69.8421 232.737 68.519Z" fill="#4C5FD5" stroke="black" stroke-width="0.75" stroke-miterlimit="10" stroke-linecap="round" stroke-linejoin="round"/>
<path d="M237.429 71.0268C243.704 67.6795 250.159 64.6482 256.762 62.0118C257.568 61.6958 258.363 61.3798 259.169 61.0639C259.955 60.7677 260.82 60.3529 261.665 60.274C262.948 60.1555 264.32 60.9651 265.385 61.5971C267.791 63.0091 269.701 65.0431 271.043 67.4721C272.396 69.9209 276.165 67.7289 274.813 65.29C273.579 63.0486 271.899 61.0441 269.88 59.4544C267.682 57.7264 264.788 55.9096 261.884 55.9491C260.352 55.9689 258.93 56.5317 257.528 57.0748C256.076 57.6376 254.634 58.2103 253.202 58.8027C250.318 59.9975 247.453 61.2416 244.629 62.5647C241.447 64.0458 238.314 65.6257 235.221 67.2747C232.744 68.6077 234.952 72.3499 237.429 71.0268Z" fill="#4C5FD5" stroke="black" stroke-width="0.75" stroke-miterlimit="10" stroke-linecap="round" stroke-linejoin="round"/>
<path d="M266.534 85.038C272.809 81.6907 279.264 78.6594 285.867 76.023C286.673 75.707 287.468 75.3911 288.274 75.0751C289.06 74.7789 289.925 74.3642 290.77 74.2852C292.053 74.1667 293.425 74.9764 294.49 75.6083C296.896 77.0203 298.806 79.0544 300.148 81.4834C301.501 83.9321 305.27 81.7401 303.918 79.3012C302.684 77.0598 301.004 75.0554 298.985 73.4656C296.787 71.7377 293.893 69.9209 290.989 69.9603C289.457 69.9801 288.035 70.5429 286.633 71.086C285.181 71.6488 283.739 72.2215 282.307 72.814C279.423 74.0087 276.558 75.2528 273.734 76.576C270.551 78.0571 267.419 79.6369 264.326 81.2859C261.859 82.6189 264.057 86.3612 266.534 85.038Z" fill="#4C5FD5" stroke="black" stroke-width="0.75" stroke-miterlimit="10" stroke-linecap="round" stroke-linejoin="round"/>
<path d="M271.237 87.5461C277.513 84.1988 283.967 81.1674 290.571 78.5311C291.376 78.2151 292.172 77.8991 292.977 77.5832C293.763 77.2869 294.628 76.8722 295.474 76.7932C296.757 76.6748 298.129 77.4844 299.193 78.1164C301.6 79.5284 303.509 81.5624 304.852 83.9914C306.205 86.4402 309.974 84.2482 308.621 81.8093C307.388 79.5679 305.707 77.5634 303.688 75.9737C301.491 74.2457 298.597 72.4289 295.693 72.4684C294.161 72.4882 292.739 73.051 291.337 73.594C289.885 74.1569 288.442 74.7296 287.01 75.322C284.126 76.5168 281.262 77.7609 278.438 79.084C275.255 80.5651 272.122 82.145 269.029 83.7939C266.553 85.1171 268.761 88.8593 271.237 87.5461Z" fill="#4C5FD5" stroke="black" stroke-width="0.75" stroke-miterlimit="10" stroke-linecap="round" stroke-linejoin="round"/>
<path d="M275.936 90.0441C282.212 86.6968 288.666 83.6655 295.27 81.0291C296.076 80.7132 296.871 80.3972 297.677 80.0812C298.462 79.785 299.328 79.3703 300.173 79.2913C301.456 79.1728 302.828 79.9825 303.892 80.6144C306.299 82.0264 308.209 84.0605 309.551 86.4895C310.904 88.9382 314.673 86.7462 313.32 84.3073C312.087 82.0659 310.407 80.0615 308.388 78.4717C306.19 76.7438 303.296 74.927 300.392 74.9665C298.86 74.9862 297.438 75.549 296.036 76.0921C294.584 76.6549 293.142 77.2276 291.71 77.8201C288.825 79.0148 285.961 80.2589 283.137 81.5821C279.954 83.0632 276.822 84.643 273.729 86.292C271.252 87.625 273.46 91.3673 275.936 90.0441Z" fill="#4C5FD5" stroke="black" stroke-width="0.75" stroke-miterlimit="10" stroke-linecap="round" stroke-linejoin="round"/>
<path d="M280.631 92.5519C286.907 89.2046 293.361 86.1733 299.965 83.5369C300.77 83.221 301.566 82.905 302.371 82.589C303.157 82.2928 304.022 81.8781 304.868 81.7991C306.151 81.6806 307.523 82.4903 308.587 83.1222C310.994 84.5342 312.903 86.5683 314.246 88.9973C315.599 91.4461 319.368 89.254 318.015 86.8151C316.782 84.5737 315.101 82.5693 313.082 80.9796C310.885 79.2516 307.991 77.4348 305.087 77.4743C303.555 77.494 302.133 78.0568 300.731 78.5999C299.279 79.1627 297.836 79.7354 296.404 80.3279C293.52 81.5226 290.656 82.7668 287.832 84.0899C284.649 85.571 281.516 87.1508 278.423 88.7998C275.957 90.1328 278.155 93.8751 280.631 92.5519Z" fill="#4C5FD5" stroke="black" stroke-width="0.75" stroke-miterlimit="10" stroke-linecap="round" stroke-linejoin="round"/>
<path d="M198.637 105.32L193.167 101.992V95.0111C193.167 94.4186 192.68 93.9348 192.083 93.9348H191.914C191.317 93.9348 190.83 94.4186 190.83 95.0111V100.57L185.36 97.2426C184.972 97.0056 184.664 97.2327 184.664 97.7462V101.449C184.664 101.962 184.982 102.565 185.36 102.802L198.627 110.889C199.015 111.126 199.323 110.898 199.323 110.385V106.682C199.333 106.159 199.025 105.557 198.637 105.32Z" fill="#77685C" stroke="black" stroke-width="0.75" stroke-miterlimit="10" stroke-linecap="round" stroke-linejoin="round"/>
<path d="M364.252 88.3064L378.385 78.2349L382.373 90.7552L355.053 111.155L330.359 142.061C330.359 142.061 144.473 240.841 132.828 246.074C121.182 251.307 106.761 247.368 106.761 247.368C106.761 247.368 104.156 229.091 121.739 219.236C129.745 214.754 215.572 153.85 215.572 153.85C263.13 126.707 304.76 114.877 304.76 114.877L323.656 108.341L364.252 88.3064Z" fill="#998976" stroke="black" stroke-width="0.75" stroke-miterlimit="10" stroke-linecap="round" stroke-linejoin="round"/>
<path d="M141.723 225.201C141.455 225.201 141.196 225.062 141.067 224.806C140.878 224.44 141.007 223.996 141.375 223.808L333.735 121.918L357.017 109.23L381.91 90.163C382.238 89.9161 382.705 89.9754 382.954 90.3012C383.203 90.6271 383.143 91.0912 382.815 91.338L357.872 110.444C357.842 110.464 357.813 110.484 357.773 110.504L334.431 123.221L142.071 225.112C141.962 225.171 141.843 225.201 141.723 225.201Z" fill="black"/>
<path d="M281.122 102.732C281.022 107.432 267.378 116.289 256.13 125.403C251.634 129.047 225.459 143.483 223.102 149.772L248.969 183.69C248.969 183.69 278.457 167.24 290.918 157.148C303.518 146.948 304.742 114.858 304.742 114.858L281.122 102.732Z" fill="black" stroke="black" stroke-width="0.75" stroke-miterlimit="10" stroke-linecap="round" stroke-linejoin="round"/>
<path d="M226.979 62.3674L254.696 78.6399L212.171 97.5191L182.703 82.7475L226.979 62.3674Z" fill="#E3DBD5" stroke="black" stroke-width="0.75" stroke-miterlimit="10" stroke-linecap="round" stroke-linejoin="round"/>
<path d="M287.534 92.3845V96.1762L303.058 115.648C300.294 125.305 289.274 153.021 280.513 160.111C270.418 168.286 255.103 177.775 247.574 181.863L250.946 184.026C250.946 184.026 279.717 168.79 292.178 158.699C304.779 148.499 306.152 115.154 306.152 115.154L287.534 92.3845Z" fill="white" stroke="black" stroke-width="0.75" stroke-miterlimit="10" stroke-linecap="round" stroke-linejoin="round"/>
<path d="M238.136 110.464L215.551 153.841L247.574 185.951L250.946 184.026L224.362 148.242L241.18 112.004L238.136 110.464Z" fill="#998976" stroke="black" stroke-width="0.75" stroke-miterlimit="10" stroke-linecap="round" stroke-linejoin="round"/>
<path d="M324.52 76.7339V93.8851C324.52 95.228 326.658 96.3141 329.303 96.3141C331.949 96.3141 334.087 95.228 334.087 93.8851V76.7339H324.52Z" fill="#AB152A" stroke="black" stroke-width="0.75" stroke-miterlimit="10" stroke-linecap="round" stroke-linejoin="round"/>
<path d="M329.303 79.163C331.945 79.163 334.087 78.0755 334.087 76.7339C334.087 75.3924 331.945 74.3049 329.303 74.3049C326.661 74.3049 324.52 75.3924 324.52 76.7339C324.52 78.0755 326.661 79.163 329.303 79.163Z" fill="#F2525A" stroke="black" stroke-width="0.75" stroke-miterlimit="10" stroke-linecap="round" stroke-linejoin="round"/>
<path d="M315.695 80.0415V97.1927C315.695 98.5356 317.834 99.6218 320.479 99.6218C323.124 99.6218 325.263 98.5356 325.263 97.1927V80.0415H315.695Z" fill="#AB152A" stroke="black" stroke-width="0.75" stroke-miterlimit="10" stroke-linecap="round" stroke-linejoin="round"/>
<path d="M320.479 82.4708C323.121 82.4708 325.263 81.3833 325.263 80.0418C325.263 78.7003 323.121 77.6128 320.479 77.6128C317.837 77.6128 315.695 78.7003 315.695 80.0418C315.695 81.3833 317.837 82.4708 320.479 82.4708Z" fill="#F2525A" stroke="black" stroke-width="0.75" stroke-miterlimit="10" stroke-linecap="round" stroke-linejoin="round"/>
<path d="M306.883 83.3496V100.501C306.883 101.844 309.021 102.93 311.666 102.93C314.312 102.93 316.45 101.844 316.45 100.501V83.3496H306.883Z" fill="#AB152A" stroke="black" stroke-width="0.75" stroke-miterlimit="10" stroke-linecap="round" stroke-linejoin="round"/>
<path d="M311.666 85.7784C314.308 85.7784 316.45 84.6909 316.45 83.3494C316.45 82.0079 314.308 80.9204 311.666 80.9204C309.025 80.9204 306.883 82.0079 306.883 83.3494C306.883 84.6909 309.025 85.7784 311.666 85.7784Z" fill="#F2525A" stroke="black" stroke-width="0.75" stroke-miterlimit="10" stroke-linecap="round" stroke-linejoin="round"/>
<path d="M133.212 221.379L129.403 214.22C125.574 216.807 122.859 218.595 121.715 219.236C104.132 229.091 106.738 247.368 106.738 247.368C106.738 247.368 121.158 251.298 132.804 246.074C133.54 245.748 134.962 245.047 137.001 244.02L133.212 221.379Z" fill="#77685C" stroke="black" stroke-width="0.75" stroke-miterlimit="10" stroke-linecap="round" stroke-linejoin="round"/>
<path d="M203.604 208.711C203.047 201.908 199.755 197.227 194.902 195.164C190.088 193.12 183.733 193.643 176.961 197.237C163.366 204.455 153.251 221.291 154.365 234.848L203.604 208.711Z" fill="black" stroke="black" stroke-width="0.75" stroke-miterlimit="10" stroke-linecap="round" stroke-linejoin="round"/>
<path d="M154.459 234.215C155.95 222.337 168.591 207.812 183.061 201.503C190.132 198.422 196.348 197.869 200.783 199.439C199.292 197.227 197.293 195.578 194.906 194.561C190.092 192.517 183.737 193.041 176.965 196.635C163.369 203.853 153.255 220.688 154.369 234.245L154.459 234.215Z" fill="white" stroke="black" stroke-width="0.75" stroke-miterlimit="10" stroke-linecap="round" stroke-linejoin="round"/>
<path d="M204.848 220.164C203.705 219.128 202.372 218.13 200.83 217.192L189.662 223.058L157.977 229.1V245.008C169.881 252.255 189.135 253.094 200.97 246.874C206.867 243.783 209.801 239.518 209.801 235.124V219.217L204.848 220.164Z" fill="#2E2F30" stroke="black" stroke-width="0.75" stroke-miterlimit="10" stroke-linecap="round" stroke-linejoin="round"/>
<path d="M200.83 206.587C206.808 210.221 209.801 214.793 209.801 219.216C209.801 223.61 206.857 227.866 200.97 230.966C189.135 237.177 169.891 236.348 157.977 229.1L200.83 206.587Z" fill="#696B6C" stroke="black" stroke-width="0.75" stroke-miterlimit="10" stroke-linecap="round" stroke-linejoin="round"/>
<path d="M197.604 208.326C202.527 211.318 204.993 215.08 204.993 218.723C204.993 222.337 202.566 225.842 197.723 228.39C187.977 233.505 172.134 232.813 162.328 226.849L197.604 208.326Z" fill="white" stroke="black" stroke-width="0.75" stroke-miterlimit="10" stroke-linecap="round" stroke-linejoin="round"/>
<path d="M195.709 209.263C200.035 211.9 202.203 215.198 202.203 218.407C202.203 221.586 200.075 224.667 195.808 226.908C187.235 231.411 173.302 230.799 164.68 225.556L195.709 209.263Z" fill="black" stroke="black" stroke-width="0.75" stroke-miterlimit="10" stroke-linecap="round" stroke-linejoin="round"/>
<path d="M186.976 224.272C186.658 224.272 186.35 224.124 186.161 223.847L176.156 209.105C175.848 208.661 175.967 208.049 176.415 207.742C176.862 207.436 177.479 207.555 177.787 207.999L187.792 222.741C188.1 223.185 187.981 223.798 187.533 224.104C187.364 224.222 187.175 224.272 186.976 224.272Z" fill="#2E2F30"/>
<path d="M189.91 222.781C189.592 222.781 189.283 222.633 189.095 222.357L179.09 207.615C178.781 207.17 178.901 206.558 179.348 206.252C179.796 205.946 180.412 206.064 180.721 206.509L190.726 221.251C191.034 221.695 190.915 222.307 190.467 222.613C190.298 222.722 190.109 222.781 189.91 222.781Z" fill="#2E2F30"/>
<path d="M369.256 125.206C368.699 118.403 365.407 113.723 360.554 111.659C355.741 109.615 349.386 110.138 342.613 113.732C329.018 120.95 318.904 137.786 320.017 151.343L369.256 125.206Z" fill="black" stroke="black" stroke-width="0.75" stroke-miterlimit="10" stroke-linecap="round" stroke-linejoin="round"/>
<path d="M320.107 150.71C321.599 138.832 334.239 124.307 348.709 117.997C355.78 114.917 361.996 114.364 366.432 115.934C364.94 113.722 362.941 112.073 360.554 111.056C355.741 109.012 349.386 109.535 342.613 113.129C329.018 120.347 318.904 137.183 320.017 150.74L320.107 150.71Z" fill="white" stroke="black" stroke-width="0.75" stroke-miterlimit="10" stroke-linecap="round" stroke-linejoin="round"/>
<path d="M370.501 136.66C369.357 135.623 368.024 134.626 366.483 133.688L355.314 139.553L323.629 145.596V161.503C335.533 168.751 354.787 169.59 366.622 163.369C372.52 160.279 375.463 156.013 375.463 151.619V135.712L370.501 136.66Z" fill="#2E2F30" stroke="black" stroke-width="0.75" stroke-miterlimit="10" stroke-linecap="round" stroke-linejoin="round"/>
<path d="M366.481 123.083C372.458 126.716 375.452 131.288 375.452 135.711C375.452 140.105 372.508 144.361 366.61 147.462C354.775 153.672 335.532 152.843 323.617 145.595L366.481 123.083Z" fill="#696B6C" stroke="black" stroke-width="0.75" stroke-miterlimit="10" stroke-linecap="round" stroke-linejoin="round"/>
<path d="M363.256 124.82C368.179 127.812 370.645 131.574 370.645 135.218C370.645 138.832 368.219 142.337 363.375 144.884C353.629 149.999 337.786 149.308 327.98 143.344L363.256 124.82Z" fill="white" stroke="black" stroke-width="0.75" stroke-miterlimit="10" stroke-linecap="round" stroke-linejoin="round"/>
<path d="M361.361 125.759C365.687 128.395 367.855 131.693 367.855 134.902C367.855 138.081 365.727 141.162 361.461 143.403C352.888 147.906 338.955 147.294 330.332 142.051L361.361 125.759Z" fill="black" stroke="black" stroke-width="0.75" stroke-miterlimit="10" stroke-linecap="round" stroke-linejoin="round"/>
<path d="M352.629 140.767C352.311 140.767 352.002 140.619 351.813 140.343L341.808 125.601C341.5 125.156 341.619 124.544 342.067 124.238C342.515 123.932 343.131 124.05 343.439 124.495L353.444 139.237C353.753 139.681 353.633 140.293 353.186 140.599C353.017 140.718 352.828 140.767 352.629 140.767Z" fill="#2E2F30"/>
<path d="M355.574 139.276C355.256 139.276 354.948 139.128 354.759 138.851L344.754 124.109C344.445 123.665 344.565 123.053 345.012 122.747C345.46 122.441 346.076 122.559 346.385 123.003L356.39 137.745C356.698 138.19 356.579 138.802 356.131 139.108C355.952 139.217 355.763 139.276 355.574 139.276Z" fill="#2E2F30"/>
<path d="M17.4113 171.525L5.74552 179.602C4.11451 180.737 3.25923 182.692 3.57747 184.648C4.1543 188.242 5.46707 193.821 8.29151 196.151C12.6177 199.725 105.337 244.544 114.606 244.237C123.875 243.931 141.875 228.37 141.875 228.37L133.701 223.403L109.802 235.124" fill="white"/>
<path d="M17.4113 171.525L5.74552 179.602C4.11451 180.737 3.25923 182.692 3.57747 184.648C4.1543 188.242 5.46707 193.821 8.29151 196.151C12.6177 199.725 105.337 244.544 114.606 244.237C123.875 243.931 141.875 228.37 141.875 228.37L133.701 223.403L109.802 235.124" stroke="black" stroke-width="0.75" stroke-miterlimit="10" stroke-linecap="round" stroke-linejoin="round"/>
<path d="M3.51562 183.324C3.51562 183.324 3.94326 186.435 6.59863 188.182C9.254 189.93 108.627 240.318 108.627 240.318C108.627 240.318 112.833 241.957 115.906 240.318C120.61 237.8 141.883 228.37 141.883 228.37V242.707C141.883 242.707 121.157 252.946 118.671 253.865C116.185 254.783 111.521 255.089 105.663 252.334C100.402 249.856 21.1286 208.276 6.1312 200.258C3.51561 198.856 3.51562 195.598 3.51562 195.598V183.324Z" fill="#B8BDBF" stroke="black" stroke-width="0.75" stroke-miterlimit="10" stroke-linecap="round" stroke-linejoin="round"/>
<path d="M113.509 227.402L19.1094 179.612V167.802L121.714 219.226L113.509 227.402Z" fill="white" stroke="black" stroke-width="0.75" stroke-miterlimit="10" stroke-linecap="round" stroke-linejoin="round"/>
<path d="M27.0494 187.106L19.1131 179.612V167.802L11.1172 184.539L27.0494 187.106Z" fill="#77685C" stroke="black" stroke-width="0.75" stroke-miterlimit="10" stroke-linecap="round" stroke-linejoin="round"/>
<path d="M113.507 227.402L19.1071 179.612L11.1211 184.539C11.1211 184.539 39.9125 202.638 57.8138 211.604C75.7152 220.579 109.817 235.124 109.817 235.124L113.507 227.402Z" fill="#998976" stroke="black" stroke-width="0.75" stroke-miterlimit="10" stroke-linecap="round" stroke-linejoin="round"/>
<path d="M33.0742 194.452L40.195 178.042L93.0438 204.79V216.777L85.207 220.855L33.0742 194.452Z" fill="black"/>
<path d="M55.5399 192.784L70.9848 200.555L68.5283 205.146L53.1133 197.494L55.5399 192.784Z" fill="#C9B7A0"/>
<path d="M289.57 1L309.421 10.5186L269.899 52.8092L250.734 43.2906L289.57 1Z" fill="#2E2F30" stroke="black" stroke-width="0.75" stroke-miterlimit="10" stroke-linecap="round" stroke-linejoin="round"/>
<path d="M309.421 10.5186L322.011 36.3392V44.8901L308.426 38.4918L269.898 52.8091L309.421 10.5186Z" fill="black" stroke="black" stroke-width="0.75" stroke-miterlimit="10" stroke-linecap="round" stroke-linejoin="round"/>
<path d="M334.879 23.7595L354.73 33.2682L315.217 75.5687L296.043 66.0501L334.879 23.7595Z" fill="#2E2F30" stroke="black" stroke-width="0.75" stroke-miterlimit="10" stroke-linecap="round" stroke-linejoin="round"/>
<path d="M354.731 33.2683L367.322 59.0988V67.6399L353.746 61.2514L315.219 75.5688L354.731 33.2683Z" fill="black" stroke="black" stroke-width="0.75" stroke-miterlimit="10" stroke-linecap="round" stroke-linejoin="round"/>
<path d="M372.048 70.9971L289.781 86.9634C289.781 86.9634 302.541 105.527 306.37 107.946C311.472 111.165 315.51 114.838 329.96 108.696C347.702 101.162 378.373 78.2347 378.373 78.2347L372.048 70.9971ZM329.433 103.591C322.64 106.702 314.963 109.338 309.95 104.697C304.938 100.056 300.492 91.1303 300.492 91.1303L367.861 74.611L371.412 78.2347C371.421 78.2347 336.235 100.481 329.433 103.591Z" fill="#E3DBD5" stroke="black" stroke-width="0.75" stroke-miterlimit="10" stroke-linecap="round" stroke-linejoin="round"/>
<path d="M182.715 82.7968L175.883 56.6996L219.841 36.9417L226.971 62.3673L182.715 82.7968Z" fill="#998976" stroke="black" stroke-width="0.75" stroke-miterlimit="10" stroke-linecap="round" stroke-linejoin="round"/>
<path d="M108.96 41.3752L105.977 49.6596L114.48 58.6153L182.028 26.4852L182.634 16.0977" fill="black"/>
<path d="M108.96 41.3752L105.977 49.6596L114.48 58.6153L182.028 26.4852L182.634 16.0977" stroke="black" stroke-width="0.75" stroke-miterlimit="10" stroke-linecap="round" stroke-linejoin="round"/>
<path d="M199.789 10.9826L176.278 8.13892L108.949 41.3849L119.193 50.0444L175.88 56.7094L219.838 36.9514L199.789 10.9826ZM212.26 37.1686L178.357 52.4833L134.787 47.3587L197.82 16.3541C198.884 15.8407 200.167 16.1073 200.922 17.0058L213.175 33.2091C214.259 34.5026 213.802 36.4676 212.26 37.1686Z" fill="white" stroke="black" stroke-width="0.75" stroke-miterlimit="10" stroke-linecap="round" stroke-linejoin="round"/>
<path d="M119.191 50.0345L108.957 41.375L176.276 8.13892L199.787 10.9826" fill="#E3DBD5"/>
<path d="M119.191 50.0345L108.957 41.375L176.276 8.13892L199.787 10.9826" stroke="black" stroke-width="0.75" stroke-miterlimit="10" stroke-linecap="round" stroke-linejoin="round"/>
<path d="M122.771 115.46C120.741 113.88 119.448 112.814 119.09 112.527C119.448 112.814 120.751 113.88 122.771 115.46Z" fill="black" stroke="black" stroke-width="0.75" stroke-miterlimit="10" stroke-linecap="round" stroke-linejoin="round"/>
<path d="M263.121 55.574V64.3421C263.121 68.4695 269.715 71.8069 277.84 71.8069C285.965 71.8069 292.559 68.4596 292.559 64.3421V55.574H263.121Z" fill="#696B6C" stroke="black" stroke-width="0.75" stroke-miterlimit="10" stroke-linecap="round" stroke-linejoin="round"/>
<path d="M277.84 63.0385C285.969 63.0385 292.559 59.6964 292.559 55.5737C292.559 51.451 285.969 48.1089 277.84 48.1089C269.711 48.1089 263.121 51.451 263.121 55.5737C263.121 59.6964 269.711 63.0385 277.84 63.0385Z" fill="white" stroke="black" stroke-width="0.75" stroke-miterlimit="10" stroke-linecap="round" stroke-linejoin="round"/>
<path d="M270.746 28.2625V53.7079C270.746 55.6926 273.919 57.302 277.837 57.302C281.755 57.302 284.928 55.6926 284.928 53.7079V28.2625H270.746Z" fill="#B8BDBF" stroke="black" stroke-width="0.75" stroke-miterlimit="10" stroke-linecap="round" stroke-linejoin="round"/>
<path d="M277.845 31.8563C281.761 31.8563 284.936 30.2471 284.936 28.2621C284.936 26.2771 281.761 24.668 277.845 24.668C273.929 24.668 270.754 26.2771 270.754 28.2621C270.754 30.2471 273.929 31.8563 277.845 31.8563Z" fill="white" stroke="black" stroke-width="0.75" stroke-miterlimit="10" stroke-linecap="round" stroke-linejoin="round"/>
<path d="M139.187 232.359C145.254 228.518 147.372 221.429 150.604 215.455C154.304 208.622 160.34 203.784 166.855 199.725C170.146 197.672 173.538 195.717 176.979 193.919C180.509 192.073 184.209 190.424 188.117 189.535C191.688 188.726 195.586 188.607 198.978 190.157C201.951 191.52 204.109 193.969 206.198 196.398C208.147 198.669 210.076 201.078 212.652 202.678C215.685 204.554 219.117 204.574 222.379 203.231C224.447 202.382 226.377 201.226 228.336 200.16C230.444 199.014 232.553 197.859 234.661 196.714C238.927 194.393 243.204 192.063 247.47 189.743C264.387 180.53 281.304 171.318 298.221 162.105C301.92 160.091 305.859 158.254 309.25 155.737C312.502 153.327 314.67 150.256 315.774 146.366C316.987 142.1 317.485 137.558 318.111 133.174C318.777 128.533 319.354 123.873 319.832 119.203C320.07 116.852 320.279 114.512 320.468 112.162C320.578 110.8 318.439 110.81 318.33 112.162C317.584 121.582 316.43 130.972 314.849 140.293C314.183 144.213 313.516 148.41 310.791 151.501C308.216 154.413 304.625 156.191 301.254 158.017C284.496 167.141 267.729 176.275 250.971 185.398C242.647 189.93 234.313 194.472 225.989 199.005C222.677 200.802 218.997 203.102 215.139 201.572C212.443 200.505 210.444 198.096 208.614 195.963C206.615 193.643 204.656 191.234 202.1 189.486C199.077 187.422 195.387 186.632 191.757 186.86C183.881 187.343 176.68 191.5 170.017 195.351C163.493 199.113 156.899 203.29 152.155 209.234C149.888 212.068 148.257 215.228 146.706 218.476C145.263 221.498 143.851 224.667 141.703 227.274C140.669 228.538 139.475 229.644 138.093 230.513C136.959 231.263 138.023 233.1 139.187 232.359Z" fill="#F2525A" stroke="black" stroke-width="0.75" stroke-miterlimit="10" stroke-linecap="round" stroke-linejoin="round"/>
<path d="M139.187 229.535C145.254 225.694 147.372 218.604 150.604 212.631C154.304 205.798 160.34 200.959 166.855 196.901C170.146 194.847 173.538 192.892 176.979 191.095C180.509 189.249 184.209 187.6 188.117 186.711C191.688 185.902 195.586 185.783 198.978 187.333C201.951 188.696 204.109 191.145 206.198 193.574C208.147 195.845 210.076 198.254 212.652 199.854C215.685 201.73 219.117 201.749 222.379 200.406C224.447 199.557 226.377 198.402 228.336 197.336C230.444 196.19 232.553 195.035 234.661 193.89C238.927 191.569 243.204 189.239 247.47 186.919C264.387 177.706 281.304 168.494 298.221 159.281C301.92 157.267 305.859 155.43 309.25 152.912C312.502 150.503 314.67 147.432 315.774 143.542C316.987 139.276 317.485 134.734 318.111 130.35C318.777 125.709 319.354 121.049 319.832 116.378C320.07 114.028 320.279 111.688 320.468 109.338C320.578 107.975 318.439 107.985 318.33 109.338C317.584 118.758 316.43 128.148 314.849 137.469C314.183 141.389 313.516 145.586 310.791 148.676C308.216 151.589 304.625 153.367 301.254 155.193C284.496 164.317 267.729 173.45 250.971 182.574C242.647 187.106 234.313 191.648 225.989 196.18C222.677 197.977 218.997 200.278 215.139 198.748C212.443 197.681 210.444 195.272 208.614 193.139C206.615 190.819 204.656 188.41 202.1 186.662C199.077 184.598 195.387 183.808 191.757 184.035C183.881 184.519 176.68 188.676 170.017 192.527C163.493 196.289 156.899 200.466 152.155 206.41C149.888 209.244 148.257 212.403 146.706 215.652C145.263 218.673 143.851 221.843 141.703 224.45C140.669 225.714 139.475 226.82 138.093 227.689C136.959 228.439 138.023 230.276 139.187 229.535Z" fill="white" stroke="black" stroke-width="0.75" stroke-miterlimit="10" stroke-linecap="round" stroke-linejoin="round"/>
<path d="M139.187 227.234C145.254 223.393 147.372 216.304 150.604 210.33C154.304 203.497 160.34 198.659 166.855 194.6C170.146 192.547 173.538 190.592 176.979 188.794C180.509 186.948 184.209 185.299 188.117 184.41C191.688 183.601 195.586 183.482 198.978 185.032C201.951 186.395 204.109 188.844 206.198 191.273C208.147 193.544 210.076 195.953 212.652 197.553C215.685 199.429 219.117 199.449 222.379 198.106C224.447 197.257 226.377 196.101 228.336 195.035C230.444 193.889 232.553 192.734 234.661 191.589C238.927 189.268 243.204 186.938 247.47 184.618C264.387 175.405 281.304 166.193 298.221 156.98C301.92 154.966 305.859 153.129 309.25 150.612C312.502 148.202 314.67 145.131 315.774 141.241C316.987 136.975 317.485 132.433 318.111 128.049C318.777 123.408 319.354 118.748 319.832 114.078C320.07 111.727 320.279 109.387 320.468 107.037C320.578 105.675 318.439 105.685 318.33 107.037C317.584 116.457 316.43 125.847 314.849 135.168C314.183 139.088 313.516 143.285 310.791 146.376C308.216 149.288 304.625 151.066 301.254 152.892C284.496 162.016 267.729 171.15 250.971 180.273C242.647 184.805 234.313 189.347 225.989 193.88C222.677 195.677 218.997 197.977 215.139 196.447C212.443 195.38 210.444 192.971 208.614 190.838C206.615 188.518 204.656 186.109 202.1 184.361C199.077 182.297 195.387 181.507 191.757 181.735C183.881 182.218 176.68 186.375 170.017 190.226C163.493 193.988 156.899 198.165 152.155 204.109C149.888 206.943 148.257 210.103 146.706 213.351C145.263 216.373 143.851 219.542 141.703 222.149C140.669 223.413 139.475 224.519 138.093 225.388C136.959 226.128 138.023 227.965 139.187 227.234Z" fill="#FFE496" stroke="black" stroke-width="0.75" stroke-miterlimit="10" stroke-linecap="round" stroke-linejoin="round"/>
<path d="M254.693 78.6396L281.963 88.6223L289.79 86.9536L246.707 73.9495L254.693 78.6396Z" fill="white" stroke="black" stroke-width="0.75" stroke-miterlimit="10" stroke-linecap="round" stroke-linejoin="round"/>
<path d="M253.858 78.2349L260.89 55.9294L218.702 75.8257L212.168 97.519L253.858 78.2349Z" fill="#77685C" stroke="black" stroke-width="0.75" stroke-miterlimit="10" stroke-linecap="round" stroke-linejoin="round"/>
<path d="M247.564 121.572L299.18 96.1858L295.152 70.9971L219.688 111.214C219.687 111.204 240.821 118.225 247.564 121.572Z" fill="#C9B7A0" stroke="black" stroke-width="0.75" stroke-miterlimit="10" stroke-linecap="round" stroke-linejoin="round"/>
<path d="M283.647 60.0466C280.922 58.5458 260.614 55.5342 260.614 55.5342L219.69 74.5911L199.988 101.883L219.69 111.204L295.154 70.9871C295.154 70.997 286.372 61.5475 283.647 60.0466ZM207.487 96.1857L221.182 75.8747L260.366 57.2325L278.486 60.2836L207.487 96.1857Z" fill="white" stroke="black" stroke-width="0.75" stroke-miterlimit="10" stroke-linecap="round" stroke-linejoin="round"/>
<path d="M247.562 121.572L252.883 124.07L299.178 101.666V96.1858L247.562 121.572Z" fill="#77685C" stroke="black" stroke-width="0.75" stroke-miterlimit="10" stroke-linecap="round" stroke-linejoin="round"/>
<path d="M66.4492 42.1846L80.2929 43.5382" stroke="black" stroke-width="0.75" stroke-miterlimit="10" stroke-linecap="round" stroke-linejoin="round"/>
<path d="M84.5 17.1343L88.2901 24.293" stroke="black" stroke-width="0.75" stroke-miterlimit="10" stroke-linecap="round" stroke-linejoin="round"/>
<path d="M78.4609 69.8417L86.0989 63.1768" stroke="black" stroke-width="0.75" stroke-miterlimit="10" stroke-linecap="round" stroke-linejoin="round"/>
<path d="M31.7383 185.951V174.132" stroke="black" stroke-width="0.75" stroke-miterlimit="10" stroke-linecap="round" stroke-linejoin="round"/>
<path d="M105.98 223.601V211.653" stroke="black" stroke-width="0.75" stroke-miterlimit="10" stroke-linecap="round" stroke-linejoin="round"/>
<path d="M91.5314 205.61L85.3555 219.434" stroke="#77685C" stroke-width="0.75" stroke-miterlimit="10" stroke-linecap="round" stroke-linejoin="round"/>
<path d="M369.262 70.9969C369.262 70.9969 376.313 74.5121 378.372 83.3691C380.43 92.2261 378.57 107.205 378.57 107.205L383.543 102.357C383.543 102.357 386.666 92.552 383.772 83.3592C380.878 74.1665 370.117 69.3875 370.117 69.3875L369.262 70.9969Z" fill="black" stroke="black" stroke-width="0.75" stroke-miterlimit="10" stroke-linecap="round" stroke-linejoin="round"/>
<path d="M123.031 228.587L131.246 233.129V247.921L127.805 249.589L133.165 252.956L145.677 246.775V223.601L136.616 218.92L123.031 226.079V228.587Z" fill="#B8BDBF" stroke="black" stroke-width="0.75" stroke-miterlimit="10" stroke-linecap="round" stroke-linejoin="round"/>
<path d="M133.215 230.522V250.764" stroke="black" stroke-width="0.75" stroke-miterlimit="10" stroke-linecap="round" stroke-linejoin="round"/>
<path d="M175.883 124.07L215.544 140.767" stroke="#77685C" stroke-width="0.75" stroke-miterlimit="10" stroke-linecap="round" stroke-linejoin="round"/>
</svg>
